<?xml version="1.0" encoding="iso-8859-1"?>
<!-- Generator: Adobe Illustrator 16.0.0, SVG Export Plug-In . SVG Version: 6.00 Build 0)  -->
<!DOCTYPE svg PUBLIC "-//W3C//DTD SVG 1.1//EN" "http://www.w3.org/Graphics/SVG/1.1/DTD/svg11.dtd">
<svg version="1.1" id="Capa_1" xmlns="http://www.w3.org/2000/svg" xmlns:xlink="http://www.w3.org/1999/xlink" x="0px" y="0px"
	 width="686.643px" height="686.642px" viewBox="0 0 686.643 686.642" style="enable-background:new 0 0 686.643 686.642;"
	 xml:space="preserve">
<g>
	<g>
		<path d="M686.572,179.801l-0.025-0.053c0.031,0.007,0.062,0.015,0.096,0.019C686.621,179.781,686.594,179.787,686.572,179.801z"/>
		<path d="M677.25,164.371c-0.004-0.001-0.006-0.001-0.006-0.001c0-0.016,0.006-0.032,0.006-0.047V164.371z"/>
	</g>
	<path d="M493.139,292.79c0-19.952-4.424-36.778-24.355-36.778h-4.602c15.137-0.989,19.629-16.428,19.629-36.043
		c0-19.945-4.588-36.112-24.547-36.112l-11.812,0.116c14.08-1.229,19.768-16.167,15.562-32.678
		c-3.777-14.855-23.393-14.691-26.812-15.227l-251.671,1.525c-16.676-2.019-44.808,9.698-48.159,23.846H47.005
		C21.058,161.438,0,177.112,0,203.073c0,0,0.124,106.949,0.316,108.522c0.783,23.694,20.055,46.614,43.777,46.614l104.504-0.33
		c6.25,26.564,123.047,84.93,179.955,129.002c20.356,15.783,41.758,47.115,41.758,47.115c8.641,15.561,28.27,21.158,43.818,12.52
		c15.561-8.646,21.182-28.262,12.525-43.818c-33.611-52.842-63.832-108.238-64.01-110.326l92.471,0.396
		c18.586,0.977,26.043-15.213,27.021-33.783c0.961-18.585-3.367-30.054-11.514-30.844
		C488.949,327.178,493.139,312.074,493.139,292.79z"/>
</g>
<g>
</g>
<g>
</g>
<g>
</g>
<g>
</g>
<g>
</g>
<g>
</g>
<g>
</g>
<g>
</g>
<g>
</g>
<g>
</g>
<g>
</g>
<g>
</g>
<g>
</g>
<g>
</g>
<g>
</g>
</svg>
