<?xml version="1.0" encoding="iso-8859-1"?>
<!-- Generator: Adobe Illustrator 19.0.0, SVG Export Plug-In . SVG Version: 6.00 Build 0)  -->
<svg version="1.1" id="Layer_1" xmlns="http://www.w3.org/2000/svg" xmlns:xlink="http://www.w3.org/1999/xlink" x="0px" y="0px"
	 viewBox="0 0 375.047 375.047" style="enable-background:new 0 0 375.047 375.047;" xml:space="preserve">
<g>
	<path style="fill:#FCD09F;" d="M317.569,165.49c15.95,0,28.87,12.93,28.87,28.87c0,7.97-3.23,15.19-8.45,20.42
		c-5.23,5.23-12.44,8.46-20.42,8.46h-92.631c-22.84,0-37.39,24.58-26.21,44.49c14.74,26.23,19.98,54.69,18.68,68.33
		c-2.05,21.52-15.73,39.78-37.34,38.96l-0.62-0.02c-12.32-0.47-22.18-10.28-22.89-22.61c-2.11-36.25-31.02-72.52-56.83-102.53
		c-7.69-8.93-14.14-18.85-19.15-29.51c-2.04-4.33-5.24-7.88-9.12-10.34c-3.88-2.47-8.44-3.85-13.23-3.85h-29.62V13.59l0,0
		c18.857,0,37.618-2.685,55.718-7.975l0,0C97.069,1.891,110.277,0,123.553,0h126.016h37.591c6.9,0,13.16,2.8,17.68,7.32
		c4.607,4.617,7.427,11.011,7.317,18.08C311.943,39.144,300.344,50,286.598,50l13.565,0.003c15.946,0,28.872,12.927,28.872,28.872
		l0,0c0,15.946-12.927,28.872-28.872,28.872h12.307c15.946,0,28.872,12.927,28.872,28.872l0,0c0,15.946-12.927,28.872-28.872,28.872
		L317.569,165.49z"/>
</g>
<g>
</g>
<g>
</g>
<g>
</g>
<g>
</g>
<g>
</g>
<g>
</g>
<g>
</g>
<g>
</g>
<g>
</g>
<g>
</g>
<g>
</g>
<g>
</g>
<g>
</g>
<g>
</g>
<g>
</g>
</svg>
